<svg width="32" height="32" viewBox="0 0 32 32" fill="none" xmlns="http://www.w3.org/2000/svg">
<path fill-rule="evenodd" clip-rule="evenodd" d="M0.0370312 30.9531C-0.00424227 31.5039 0.449161 31.9581 0.999883 31.9166C4.72243 31.6359 7.48465 29.7941 10.0546 27.3653C10.5384 26.9081 11.3293 27.0152 11.6894 27.575C12.9052 29.4654 14.358 31.0729 15.5553 31.7905C15.8012 31.9378 16.1063 31.9375 16.349 31.7851C17.4863 31.0708 18.7786 29.4729 19.98 27.5586C20.3307 26.9998 21.1125 26.8976 21.5966 27.3459C24.2241 29.7785 27.2349 31.6352 31.0003 31.9167C31.5511 31.9579 32.0042 31.504 31.963 30.9533C31.6012 26.1054 28.6123 22.4497 24.3774 20.6442C23.4245 20.238 23.246 18.3954 24.0673 17.7642C26.3349 16.0211 27.0876 13.8009 27.0876 11.4965C27.0876 7.76661 24.9416 4.56735 22.0565 2.6878C21.8849 2.57601 21.7098 2.46014 21.5314 2.34208C19.9002 1.26259 17.9923 0 15.9535 0C13.9146 0 12.0067 1.26259 10.3755 2.34208L10.3755 2.3421C10.1971 2.46015 10.022 2.57601 9.85042 2.6878C6.96538 4.56735 4.90198 7.76661 4.90198 11.4965C4.90198 13.9994 5.73287 16.2143 8.41161 18.0781C9.2129 18.6356 9.06483 20.126 8.15912 20.4901C3.68708 22.2878 0.417141 25.8811 0.0370312 30.9531ZM13.3376 7.41496C13.4162 6.59027 12.8113 5.85805 11.9866 5.7795C11.1619 5.70096 10.4297 6.30584 10.3511 7.13053L10.1433 9.31235C10.0648 10.137 10.6697 10.8693 11.4944 10.9478C12.3191 11.0264 13.0513 10.4215 13.1298 9.59678L13.3376 7.41496ZM20.0138 5.7795C19.1891 5.85805 18.5843 6.59027 18.6628 7.41496L18.8706 9.59678C18.9492 10.4215 19.6814 11.0264 20.5061 10.9478C21.3308 10.8693 21.9356 10.137 21.8571 9.31235L21.6493 7.13053C21.5708 6.30584 20.8385 5.70096 20.0138 5.7795ZM19.4744 15.423C20.2604 15.1611 20.6851 14.3116 20.4231 13.5257C20.1612 12.7398 19.3117 12.315 18.5258 12.577C17.2554 13.0004 16.7217 13.0003 16.0478 13L16.0001 13C15.6073 13 15.4578 12.9986 15.1817 12.9555C14.8583 12.905 14.3715 12.7967 13.3639 12.5448C12.5602 12.3439 11.7458 12.8325 11.5449 13.6362C11.344 14.4399 11.8326 15.2543 12.6363 15.4552C13.6287 15.7033 14.2419 15.8451 14.7185 15.9195C15.2339 16.0001 15.5813 16 15.9802 16H15.9802H16.0001C16.9031 16 17.7746 15.9896 19.4744 15.423Z" fill="black"/>
</svg>
