<svg width="176" height="209" viewBox="0 0 176 209" fill="none" xmlns="http://www.w3.org/2000/svg">
<path d="M52 93V6H96.3646L125 35.6682V93H52Z" fill="white"/>
<path d="M96.3646 6H52V93H125V35.6682M96.3646 6L125 35.6682M96.3646 6V35.6682H125" stroke="black" stroke-width="11" stroke-linejoin="round"/>
<path d="M6 97.5V74.6663C6 70.9306 9.36892 68.0512 13.0745 68.5251C24.5132 69.9881 49.7258 72.5 88 72.5C126.274 72.5 151.487 69.9881 162.926 68.5251C166.631 68.0512 170 70.9306 170 74.6663V97.5V192.957C170 195.872 167.922 198.35 165.035 198.756C154.302 200.263 126.742 203.5 88 203.5C49.2579 203.5 21.6982 200.263 10.965 198.756C8.07779 198.35 6 195.872 6 192.957V97.5Z" fill="white"/>
<path d="M6 97.5V74.6663C6 70.9306 9.36892 68.0512 13.0745 68.5251C24.5132 69.9881 49.7258 72.5 88 72.5C126.274 72.5 151.487 69.9881 162.926 68.5251C166.631 68.0512 170 70.9306 170 74.6663V97.5M6 97.5V192.957C6 195.872 8.07779 198.35 10.965 198.756C21.6982 200.263 49.2579 203.5 88 203.5C126.742 203.5 154.302 200.263 165.035 198.756C167.922 198.35 170 195.872 170 192.957V97.5M6 97.5C6 97.5 47.5 102.5 88 102.5C128.5 102.5 170 97.5 170 97.5" stroke="black" stroke-width="11" stroke-linejoin="round"/>
<circle cx="21.5" cy="84.5" r="5.5" fill="black"/>
<circle cx="37.5" cy="86.5" r="5.5" fill="black"/>
<circle cx="53.5" cy="87.5" r="5.5" fill="black"/>
</svg>
