<svg width="253" height="190" viewBox="0 0 253 190" fill="none" xmlns="http://www.w3.org/2000/svg">
<path d="M18.9817 75.5706C-2.92941 106.523 3.95482 143.118 31.6738 161.618C59.3927 180.118 86.8927 168.118 86.8927 168.118C86.8927 168.118 112.893 184.118 145.393 183.618C177.893 183.118 194.803 171.618 207.814 161.618C220.826 151.618 251.654 142.096 246 110C240.346 77.9043 207.814 68.3013 207.814 68.3013C207.814 68.3013 207.814 13.1181 163.393 6.61809C118.971 0.118087 102.186 46.6571 102.393 63.1181C93.6978 62.9518 40.8928 44.6181 18.9817 75.5706Z" fill="white" stroke="black" stroke-width="11" stroke-linecap="round" stroke-linejoin="round"/>
<path d="M85.3927 36.6181H129.757L158.393 66.2863V114.118C149.893 110.118 129.393 103.618 115.893 103.618C102.393 103.618 90.2261 109.451 85.3927 114.118V36.6181Z" fill="white"/>
<path d="M129.757 36.6181H85.3927V114.118M129.757 36.6181L158.393 66.2863M129.757 36.6181V66.2863H158.393M158.393 66.2863V114.118M85.3927 114.118C82.3927 107.118 64.0927 92.5181 54.8927 94.1181M85.3927 114.118C90.2261 109.451 102.393 103.618 115.893 103.618C129.393 103.618 149.893 110.118 158.393 114.118M158.393 114.118C158.393 114.118 166.393 103.618 182.393 103.618" stroke="black" stroke-width="11" stroke-linecap="round" stroke-linejoin="round"/>
</svg>
